<svg xmlns="http://www.w3.org/2000/svg" width="32" height="32" viewBox="0 0 32 32"><g fill="none" fill-rule="evenodd"><g fill="#000" fill-rule="nonzero" transform="translate(6 1)"><path d="M23.5,14.347 L23.5,17 C23.5,17.8284271 22.8284271,18.5 22,18.5 L22,18.5 L20,18.5 C19.1715729,18.5 18.5,17.8284271 18.5,17 L18.5,17 L18.5,14.347 L19.5,14.347 L19.5,17 C19.5,17.2454599 19.6768752,17.4496084 19.9101244,17.4919443 L20,17.5 L22,17.5 C22.2761424,17.5 22.5,17.2761424 22.5,17 L22.5,17 L22.5,14.347 L23.5,14.347 Z"/><path d="M18.9283295,0.5 C19.1249939,0.5 19.3033932,0.615287044 19.3841873,0.794589073 L19.3841873,0.794589073 L22.443,7.584 L24.3882751,7.58465576 C24.633735,7.58465576 24.8378835,7.76153092 24.8802195,7.99478013 L24.8802195,7.99478013 L24.8882751,8.08465576 L24.8882751,14.3473282 C24.8882751,14.6234706 24.6644175,14.8473282 24.3882751,14.8473282 L24.3882751,14.8473282 L14.662,14.847 L14.212,13.847 L23.888,13.847 L23.888,8.584 L22.120697,8.58465576 C21.9521275,8.58465576 21.7969772,8.49995508 21.7052097,8.36284165 L21.7052097,8.36284165 L21.6648392,8.29006669 L18.605,1.5 L6.774,1.5 L3.55068707,8.29890349 C3.47974961,8.44848526 3.3404052,8.55158158 3.18041158,8.57798499 L3.18041158,8.57798499 L3.0989151,8.58465576 L1.5,8.584 L1.5,13.078 L0.706680267,14.7522966 C0.604513669,14.6781687 0.531491647,14.5663239 0.508055669,14.4372038 L0.5,14.3473282 L0.5,8.08465576 C0.5,7.80851339 0.723857625,7.58465576 1,7.58465576 L1,7.58465576 L2.783,7.584 L6.00696064,0.785752276 C6.07789809,0.636170499 6.21724251,0.533074178 6.37723613,0.506670775 L6.37723613,0.506670775 L6.4587326,0.5 Z"/><path d="M17.3582612 2.41166207 7.99707835 2.41166207C7.80246606 2.41166207 7.62553568 2.52458328 7.54357842 2.70109659L5.33607083 7.45545881C5.18219369 7.78686771 5.42418051 8.16602429 5.78957075 8.16602429L19.6256702 8.16602429C19.9932991 8.16602429 20.2352251 7.78261713 20.0769741 7.45079236L17.8095651 2.69643014C17.726594 2.52245423 17.5510093 2.41166207 17.3582612 2.41166207ZM17.042 3.411 18.833 7.166 6.573 7.166 8.316 3.411 17.042 3.411ZM5.58715057 8.80505371C6.69172007 8.80505371 7.58715057 9.70048421 7.58715057 10.8050537 7.58715057 11.5195799 7.21245197 12.1465905 6.64882832 12.500312L4.52547282 12.500312C3.96184918 12.1465905 3.58715057 11.5195799 3.58715057 10.8050537 3.58715057 9.70048421 4.48258107 8.80505371 5.58715057 8.80505371ZM5.58715057 9.80505371C5.03486582 9.80505371 4.58715057 10.252769 4.58715057 10.8050537 4.58715057 11.3573385 5.03486582 11.8050537 5.58715057 11.8050537 6.13943532 11.8050537 6.58715057 11.3573385 6.58715057 10.8050537 6.58715057 10.252769 6.13943532 9.80505371 5.58715057 9.80505371ZM19.5871506 8.80505371C18.4825811 8.80505371 17.5871506 9.70048421 17.5871506 10.8050537 17.5871506 11.9096232 18.4825811 12.8050537 19.5871506 12.8050537 20.6917201 12.8050537 21.5871506 11.9096232 21.5871506 10.8050537 21.5871506 9.70048421 20.6917201 8.80505371 19.5871506 8.80505371ZM19.5871506 9.80505371C20.1394353 9.80505371 20.5871506 10.252769 20.5871506 10.8050537 20.5871506 11.3573385 20.1394353 11.8050537 19.5871506 11.8050537 19.0348658 11.8050537 18.5871506 11.3573385 18.5871506 10.8050537 18.5871506 10.252769 19.0348658 9.80505371 19.5871506 9.80505371Z"/></g><g fill="#000" fill-rule="nonzero" transform="translate(2 13)"><path d="M22.5 13.347 22.5 16C22.5 16.8284271 21.8284271 17.5 21 17.5L21 17.5 19 17.5C18.1715729 17.5 17.5 16.8284271 17.5 16L17.5 16 17.5 13.347 18.5 13.347 18.5 16C18.5 16.2454599 18.6768752 16.4496084 18.9101244 16.4919443L19 16.5 21 16.5C21.2761424 16.5 21.5 16.2761424 21.5 16L21.5 16 21.5 13.347 22.5 13.347ZM5.5 13.347 5.5 16C5.5 16.8284271 4.82842712 17.5 4 17.5L4 17.5 2 17.5C1.17157288 17.5.5 16.8284271.5 16L.5 16 .5 13.347 1.5 13.347 1.5 16C1.5 16.2454599 1.67687516 16.4496084 1.91012437 16.4919443L2 16.5 4 16.5C4.27614237 16.5 4.5 16.2761424 4.5 16L4.5 16 4.5 13.347 5.5 13.347Z"/><path d="M5.4587326,-0.5 L5.37723613,-0.493329225 C5.21724251,-0.466925822 5.07789809,-0.363829501 5.00696064,-0.214247724 L1.783,6.584 L0,6.58465576 C-0.276142375,6.58465576 -0.5,6.80851339 -0.5,7.08465576 L-0.5,13.3473282 C-0.5,13.6234706 -0.276142375,13.8473282 0,13.8473282 L23.3882751,13.8473282 C23.6644175,13.8473282 23.8882751,13.6234706 23.8882751,13.3473282 L23.8882751,7.08465576 L23.8802195,6.99478013 C23.8378835,6.76153092 23.633735,6.58465576 23.3882751,6.58465576 L21.443,6.584 L18.3841873,-0.205410927 C18.3033932,-0.384712956 18.1249939,-0.5 17.9283295,-0.5 L5.4587326,-0.5 Z M17.605,0.5 L20.6648392,7.29006669 L20.7052097,7.36284165 C20.7969772,7.49995508 20.9521275,7.58465576 21.120697,7.58465576 L22.888,7.584 L22.888,12.847 L0.5,12.847 L0.5,7.584 L2.0989151,7.58465576 L2.18041158,7.57798499 C2.3404052,7.55158158 2.47974961,7.44848526 2.55068707,7.29890349 L5.774,0.5 L17.605,0.5 Z"/><path d="M16.3582612 1.41166207 6.99707835 1.41166207C6.80246606 1.41166207 6.62553568 1.52458328 6.54357842 1.70109659L4.33607083 6.45545881C4.18219369 6.78686771 4.42418051 7.16602429 4.78957075 7.16602429L18.6256702 7.16602429C18.9932991 7.16602429 19.2352251 6.78261713 19.0769741 6.45079236L16.8095651 1.69643014C16.726594 1.52245423 16.5510093 1.41166207 16.3582612 1.41166207ZM16.042 2.411 17.833 6.166 5.573 6.166 7.316 2.411 16.042 2.411ZM4.58715057 7.80505371C3.48258107 7.80505371 2.58715057 8.70048421 2.58715057 9.80505371 2.58715057 10.9096232 3.48258107 11.8050537 4.58715057 11.8050537 5.69172007 11.8050537 6.58715057 10.9096232 6.58715057 9.80505371 6.58715057 8.70048421 5.69172007 7.80505371 4.58715057 7.80505371ZM4.58715057 8.80505371C5.13943532 8.80505371 5.58715057 9.25276896 5.58715057 9.80505371 5.58715057 10.3573385 5.13943532 10.8050537 4.58715057 10.8050537 4.03486582 10.8050537 3.58715057 10.3573385 3.58715057 9.80505371 3.58715057 9.25276896 4.03486582 8.80505371 4.58715057 8.80505371ZM18.5871506 7.80505371C17.4825811 7.80505371 16.5871506 8.70048421 16.5871506 9.80505371 16.5871506 10.9096232 17.4825811 11.8050537 18.5871506 11.8050537 19.6917201 11.8050537 20.5871506 10.9096232 20.5871506 9.80505371 20.5871506 8.70048421 19.6917201 7.80505371 18.5871506 7.80505371ZM18.5871506 8.80505371C19.1394353 8.80505371 19.5871506 9.25276896 19.5871506 9.80505371 19.5871506 10.3573385 19.1394353 10.8050537 18.5871506 10.8050537 18.0348658 10.8050537 17.5871506 10.3573385 17.5871506 9.80505371 17.5871506 9.25276896 18.0348658 8.80505371 18.5871506 8.80505371Z"/></g></g></svg>