<svg xmlns="http://www.w3.org/2000/svg" width="32" height="32" viewBox="0 0 32 32"><g fill="none" fill-rule="evenodd"><path fill="#000" d="M16,0 C24.836556,0 32,7.163444 32,16 C32,24.836556 24.836556,32 16,32 C7.163444,32 0,24.836556 0,16 C0,7.163444 7.163444,0 16,0 Z M16,1 C7.71572875,1 1,7.71572875 1,16 C1,24.2842712 7.71572875,31 16,31 C24.2842712,31 31,24.2842712 31,16 C31,7.71572875 24.2842712,1 16,1 Z"/><path fill="#000" fill-rule="nonzero" d="M20.6640129,5.5 L15.3022804,5.5 C15.11719,5.5 14.9472415,5.60224906 14.8605357,5.76577454 L9.55825524,15.7657745 L9.52515877,15.8425877 C9.42067843,16.1530364 9.64521884,16.4918593 9.98833866,16.499864 L12.595,16.56 L9.52308071,26.3205871 C9.36053243,26.8368529 10.0198515,27.2073325 10.3762791,26.8000099 L22.009454,13.5057098 L22.0592922,13.4388204 C22.2608471,13.1172069 22.0341219,12.6764469 21.6331749,12.6764469 L16.863,12.676 L21.0815052,6.27513672 C21.3005943,5.94269108 21.0621588,5.5 20.6640129,5.5 Z M19.735,6.5 L15.5170819,12.9013102 L15.4770286,12.9740345 C15.3328698,13.2947388 15.5648672,13.6764469 15.9345741,13.6764469 L20.531,13.676 L11.191,24.349 L13.7496358,16.2265091 L13.767839,16.1471641 C13.8101768,15.857058 13.5894512,15.5836023 13.2843779,15.5764853 L10.82,15.519 L15.603,6.5 L19.735,6.5 Z"/></g></svg>