<svg xmlns="http://www.w3.org/2000/svg" width="32" height="32" viewBox="0 0 32 32"><g fill="none" fill-rule="evenodd"><path fill="#000" fill-rule="nonzero" d="M20.5637512.5C20.8092111.5 21.0133596.676875161 21.0556956.910124368L21.0637512 1 21.0637512 9.13973236C21.0637512 9.41587474 20.8398936 9.63973236 20.5637512 9.63973236 20.3182913 9.63973236 20.1141429 9.4628572 20.0718069 9.22960799L20.0637512 9.13973236 20.0637512 1C20.0637512.723857625 20.2876088.5 20.5637512.5ZM9.72133393 9.03479409C9.81461239 8.50804512 10.6102228 8.50804512 10.7035013 9.03479409L10.7124176 9.13973236 10.7124176 22.4130325C10.7124176 22.6891749 10.48856 22.9130325 10.2124176 22.9130325 9.96695771 22.9130325 9.76280923 22.7361574 9.72047327 22.5029082L9.7124176 22.4130325 9.712 16.5 1 16.5C.754540111 16.5.55039163 16.3231248.508055669 16.0898756L.5 16C.5 15.7545401.676875161 15.5503916.910124368 15.5080557L1 15.5 9.712 15.5 9.7124176 9.13973236 9.72133393 9.03479409ZM31 20.2763824C31.2761424 20.2763824 31.5 20.5002401 31.5 20.7763824 31.5 21.0218423 31.3231248 21.2259908 31.0898756 21.2683268L31 21.2763824 20.5637512 21.2763824C20.2876088 21.2763824 20.0637512 21.0525248 20.0637512 20.7763824 20.0637512 20.5309226 20.2406264 20.3267741 20.4738756 20.2844381L20.5637512 20.2763824 31 20.2763824Z"/><path fill="#000" fill-rule="nonzero" d="M25.7818756,8.63973236 C26.058018,8.63973236 26.2818756,8.86358999 26.2818756,9.13973236 C26.2818756,9.38519225 26.1050004,9.58934073 25.8717512,9.63167669 L25.7818756,9.63973236 L20.5637512,9.63973236 C20.2876088,9.63973236 20.0637512,9.41587474 20.0637512,9.13973236 C20.0637512,8.89427247 20.2406264,8.69012399 20.4738756,8.64778803 L20.5637512,8.63973236 L25.7818756,8.63973236 Z"/><path fill="#000" fill-rule="nonzero" d="M31,0.5 C31.2454599,0.5 31.4496084,0.676875161 31.4919443,0.910124368 L31.5,1 L31.5,30.3371277 C31.5,30.5825876 31.3231248,30.7867361 31.0898756,30.829072 L31,30.8371277 L25.7818756,30.8371277 C25.5057332,30.8371277 25.2818756,30.6132701 25.2818756,30.3371277 C25.2818756,30.0916678 25.4587508,29.8875193 25.692,29.8451834 L25.7818756,29.8371277 L30.5,29.837 L30.5,1.499 L1.5,1.499 L1.5,30.3371277 C1.5,30.5825876 1.32312484,30.7867361 1.08987563,30.829072 L1,30.8371277 C0.754540111,30.8371277 0.55039163,30.6602525 0.508055669,30.4270033 L0.5,30.3371277 L0.5,1 C0.5,0.754540111 0.676875161,0.55039163 0.910124368,0.508055669 L1,0.5 L31,0.5 Z"/><path fill="#000" fill-rule="nonzero" d="M18.44133,29.8371277 C18.7174723,29.8371277 18.94133,30.0609853 18.94133,30.3371277 C18.94133,30.5825876 18.7644548,30.7867361 18.5312056,30.829072 L18.44133,30.8371277 L1,30.8371277 C0.723857625,30.8371277 0.5,30.6132701 0.5,30.3371277 C0.5,30.0916678 0.676875161,29.8875193 0.910124368,29.8451834 L1,29.8371277 L18.44133,29.8371277 Z"/></g></svg>