<svg xmlns="http://www.w3.org/2000/svg" width="32" height="32" viewBox="0 0 32 32"><g fill="none" fill-rule="evenodd"><path fill="#000" fill-rule="nonzero" d="M31,0.5 L1,0.5 C0.723857625,0.5 0.5,0.723857625 0.5,1 L0.5,31 C0.5,31.2761424 0.723857625,31.5 1,31.5 L31,31.5 C31.2761424,31.5 31.5,31.2761424 31.5,31 L31.5,1 C31.5,0.723857625 31.2761424,0.5 31,0.5 Z M30.5,1.5 L30.5,30.5 L1.5,30.5 L1.5,1.5 L30.5,1.5 Z"/><g fill="#000" fill-rule="nonzero" transform="translate(4 24)"><polygon points="20.287 1.932 20.287 2.932 .675 2.932 .675 1.932"/><path d="M17.6464466,-0.353553391 C17.820013,-0.527119742 18.0894374,-0.546404893 18.2843055,-0.411408841 L18.3535534,-0.353553391 L20.6359325,1.92882576 C20.8094989,2.10239211 20.828784,2.37181651 20.693788,2.56668465 L20.6359325,2.63593254 L18.3535534,4.91831169 C18.1582912,5.11357384 17.8417088,5.11357384 17.6464466,4.91831169 C17.4728803,4.74474534 17.4535951,4.47532094 17.5885912,4.2804528 L17.6464466,4.21120491 L19.575,2.282 L17.6464466,0.353553391 C17.4728803,0.179987039 17.4535951,-0.0894373624 17.5885912,-0.284305503 L17.6464466,-0.353553391 Z"/><path d="M-0.353553391,-0.353553391 C-0.179987039,-0.527119742 0.0894373624,-0.546404893 0.284305503,-0.411408841 L0.353553391,-0.353553391 L2.63593254,1.92882576 C2.80949889,2.10239211 2.82878404,2.37181651 2.69378799,2.56668465 L2.63593254,2.63593254 L0.353553391,4.91831169 C0.158291245,5.11357384 -0.158291245,5.11357384 -0.353553391,4.91831169 C-0.527119742,4.74474534 -0.546404893,4.47532094 -0.411408841,4.2804528 L-0.353553391,4.21120491 L1.575,2.282 L-0.353553391,0.353553391 C-0.527119742,0.179987039 -0.546404893,-0.0894373624 -0.411408841,-0.284305503 L-0.353553391,-0.353553391 Z" transform="matrix(-1 0 0 1 2.282 0)"/></g><g fill="#000" fill-rule="nonzero" transform="rotate(90 12 16)"><polygon points="20.287 1.932 20.287 2.932 .675 2.932 .675 1.932"/><path d="M17.6464466,-0.353553391 C17.820013,-0.527119742 18.0894374,-0.546404893 18.2843055,-0.411408841 L18.3535534,-0.353553391 L20.6359325,1.92882576 C20.8094989,2.10239211 20.828784,2.37181651 20.693788,2.56668465 L20.6359325,2.63593254 L18.3535534,4.91831169 C18.1582912,5.11357384 17.8417088,5.11357384 17.6464466,4.91831169 C17.4728803,4.74474534 17.4535951,4.47532094 17.5885912,4.2804528 L17.6464466,4.21120491 L19.575,2.282 L17.6464466,0.353553391 C17.4728803,0.179987039 17.4535951,-0.0894373624 17.5885912,-0.284305503 L17.6464466,-0.353553391 Z"/><path d="M-0.353553391,-0.353553391 C-0.179987039,-0.527119742 0.0894373624,-0.546404893 0.284305503,-0.411408841 L0.353553391,-0.353553391 L2.63593254,1.92882576 C2.80949889,2.10239211 2.82878404,2.37181651 2.69378799,2.56668465 L2.63593254,2.63593254 L0.353553391,4.91831169 C0.158291245,5.11357384 -0.158291245,5.11357384 -0.353553391,4.91831169 C-0.527119742,4.74474534 -0.546404893,4.47532094 -0.411408841,4.2804528 L-0.353553391,4.21120491 L1.575,2.282 L-0.353553391,0.353553391 C-0.527119742,0.179987039 -0.546404893,-0.0894373624 -0.411408841,-0.284305503 L-0.353553391,-0.353553391 Z" transform="matrix(-1 0 0 1 2.282 0)"/></g></g></svg>