<svg xmlns="http://www.w3.org/2000/svg" width="32" height="32" viewBox="0 0 32 32"><g fill="none" fill-rule="evenodd"><path fill="#000" fill-rule="nonzero" d="M28.5011092,12.9642293 L28.5,22 C28.5,22.2761424 28.2761424,22.5 28,22.5 L28,22.5 L25,22.5 C24.7238576,22.5 24.5,22.2761424 24.5,22 L24.5,22 L24.499,12.9642925 C24.808854,13.143653 25.1450006,13.282636 25.5002435,13.3740452 L25.5,21.5 L27.5,21.5 L27.5007613,13.3737865 C27.855675,13.2823631 28.1915171,13.1434512 28.5011092,12.9642293 Z"/><path fill="#000" fill-rule="nonzero" d="M26.5 4.5C29.2614237 4.5 31.5 6.73857625 31.5 9.5 31.5 12.2614237 29.2614237 14.5 26.5 14.5 25.1368289 14.5 23.9010697 13.9544852 22.9991178 13.0698514 23.2399419 12.8353817 23.4555517 12.577089 23.6438685 12.2988161 24.3688191 13.0402827 25.3807232 13.5 26.5 13.5 28.709139 13.5 30.5 11.709139 30.5 9.5 30.5 7.290861 28.709139 5.5 26.5 5.5 25.3807232 5.5 24.3688191 5.95971725 23.6428057 6.70063376 23.4555517 6.42291102 23.2399419 6.16461826 23.0008822 5.93014861 23.9010697 5.04551476 25.1368289 4.5 26.5 4.5ZM17.4986803 14.0833795C18.1114906 14.3513392 18.7883845 14.5 19.5 14.5 20.2113108 14.5 20.8879297 14.3514665 21.5005324 14.0837237L21.5 25.2142857C21.5 25.3720814 21.2761424 25.5 21 25.5L21 25.5 18 25.5C17.7238576 25.5 17.5 25.3720814 17.5 25.2142857L17.5 25.2142857ZM20.5 14.5 18.5 14.5 18.5 24.5 20.5 24.5 20.5 14.5Z"/><path fill="#000" fill-rule="nonzero" d="M19.5,3.5 C22.8137085,3.5 25.5,6.1862915 25.5,9.5 C25.5,12.8137085 22.8137085,15.5 19.5,15.5 C17.7874152,15.5 16.2424141,14.7824888 15.1492093,13.6316788 C15.3552824,13.3530397 15.5395132,13.0582784 15.701425,12.7499609 C16.6170602,13.82107 17.9792438,14.5 19.5,14.5 C22.2614237,14.5 24.5,12.2614237 24.5,9.5 C24.5,6.73857625 22.2614237,4.5 19.5,4.5 C17.9792438,4.5 16.6170602,5.17892995 15.7000175,6.25022149 C15.5395132,5.94172156 15.3552824,5.64696025 15.1508799,5.36790236 C16.2424141,4.21751124 17.7874152,3.5 19.5,3.5 Z"/><path fill="#000" fill-rule="nonzero" d="M9.5,1.5 C13.918278,1.5 17.5,5.081722 17.5,9.5 C17.5,13.2279108 14.9501372,16.3602692 11.499356,17.2481308 L11.5,30.1428571 C11.5,30.3401017 11.2761424,30.5 11,30.5 L11,30.5 L8,30.5 C7.72385763,30.5 7.5,30.3401017 7.5,30.1428571 L7.5,30.1428571 L7.4996419,17.2478729 C4.04936918,16.3596627 1.5,13.2275499 1.5,9.5 C1.5,5.081722 5.081722,1.5 9.5,1.5 Z M10.4999513,17.4381123 C10.1723727,17.4789588 9.83864356,17.5 9.5,17.5 C9.16101053,17.5 8.82694556,17.4789157 8.49904492,17.4379871 L8.5,29.5 L10.5,29.5 Z M9.5,2.5 C5.63400675,2.5 2.5,5.63400675 2.5,9.5 C2.5,13.3659932 5.63400675,16.5 9.5,16.5 C13.3659932,16.5 16.5,13.3659932 16.5,9.5 C16.5,5.63400675 13.3659932,2.5 9.5,2.5 Z"/></g></svg>