<svg xmlns="http://www.w3.org/2000/svg" width="32" height="32" viewBox="0 0 32 32"><g fill-rule="evenodd" transform="translate(.436 -.205)"><polygon points=".941 12.416 11.294 12.416 11.294 18.063 .941 18.063" transform="rotate(-45 6.118 15.24)"/><polygon points="9.593 3.765 19.946 3.765 19.946 9.412 9.593 9.412" transform="rotate(-45 14.77 6.588)"/><polygon points="10.258 13.747 20.611 13.747 20.611 19.394 10.258 19.394" transform="rotate(-45 15.435 16.57)"/><polygon points="1.607 22.399 11.96 22.399 11.96 28.046 1.607 28.046" transform="rotate(-45 6.783 25.223)"/><polygon points="18.91 5.096 29.263 5.096 29.263 10.743 18.91 10.743" transform="rotate(-45 24.086 7.92)"/><polygon points="20.241 14.413 30.594 14.413 30.594 20.06 20.241 20.06" transform="rotate(-45 25.418 17.236)"/><polygon points="11.589 23.065 21.942 23.065 21.942 28.712 11.589 28.712" transform="rotate(-45 16.766 25.888)"/></g></svg>